<?xml version="1.0" encoding="UTF-8" standalone="no"?>
<!-- Created with Inkscape (http://www.inkscape.org/) -->

<svg
   version="1.1"
   id="svg2"
   xml:space="preserve"
   width="403.06451"
   height="124.54748"
   viewBox="0 0 403.06451 124.54748"
   sodipodi:docname="Цилиндрическая спиральная антенна (а) и развертка ее витка (б).svg"
   inkscape:version="1.1.1 (3bf5ae0d25, 2021-09-20)"
   xmlns:inkscape="http://www.inkscape.org/namespaces/inkscape"
   xmlns:sodipodi="http://sodipodi.sourceforge.net/DTD/sodipodi-0.dtd"
   xmlns="http://www.w3.org/2000/svg"
   xmlns:svg="http://www.w3.org/2000/svg"><defs
     id="defs6"><clipPath
       clipPathUnits="userSpaceOnUse"
       id="clipPath256"><path
         d="m 233.88,658.92 h 6.84 v 10.44 h -6.84 z"
         id="path254" /></clipPath><clipPath
       clipPathUnits="userSpaceOnUse"
       id="clipPath290"><path
         d="m 393.12,658.92 h 6 v 12.36 h -6 z"
         id="path288" /></clipPath><clipPath
       clipPathUnits="userSpaceOnUse"
       id="clipPath358"><path
         d="m 425.64,636.36 h 5.52 v 12.12 h -5.52 z"
         id="path356" /></clipPath><clipPath
       clipPathUnits="userSpaceOnUse"
       id="clipPath540"><path
         d="m 183.12,565.32 h 12 V 573 h -12 z"
         id="path538" /></clipPath><clipPath
       clipPathUnits="userSpaceOnUse"
       id="clipPath558"><path
         d="m 190.32,576.12 h 8.52 v 4.32 h -8.52 z"
         id="path556" /></clipPath><clipPath
       clipPathUnits="userSpaceOnUse"
       id="clipPath566"><path
         d="m 321.24,573.6 h 12 v 7.68 h -12 z"
         id="path564" /></clipPath><clipPath
       clipPathUnits="userSpaceOnUse"
       id="clipPath584"><path
         d="m 239.52,517.2 h 2.64 v 7.32 h -2.64 z"
         id="path582" /></clipPath><clipPath
       clipPathUnits="userSpaceOnUse"
       id="clipPath604"><path
         d="m 344.64,535.44 h 4.2 v 11.76 h -4.2 z"
         id="path602" /></clipPath><clipPath
       clipPathUnits="userSpaceOnUse"
       id="clipPath616"><path
         d="m 348.72,532.2 h 3.48 v 7.32 h -3.48 z"
         id="path614" /></clipPath><clipPath
       clipPathUnits="userSpaceOnUse"
       id="clipPath630"><path
         d="m 282.12,579.6 h 3.48 v 7.2 h -3.48 z"
         id="path628" /></clipPath><clipPath
       clipPathUnits="userSpaceOnUse"
       id="clipPath650"><path
         d="m 466.68,547.56 h 2.64 v 7.32 h -2.64 z"
         id="path648" /></clipPath><clipPath
       clipPathUnits="userSpaceOnUse"
       id="clipPath658"><path
         d="m 380.88,561.6 h 6.84 v 10.32 h -6.84 z"
         id="path656" /></clipPath><clipPath
       clipPathUnits="userSpaceOnUse"
       id="clipPath670"><path
         d="m 391.8,559.32 h 2.76 v 6.84 h -2.76 z"
         id="path668" /></clipPath><clipPath
       clipPathUnits="userSpaceOnUse"
       id="clipPath684"><path
         d="m 407.52,559.8 h 5.88 v 11.76 h -5.88 z"
         id="path682" /></clipPath><clipPath
       clipPathUnits="userSpaceOnUse"
       id="clipPath696"><path
         d="m 413.28,556.44 h 2.04 v 7.32 h -2.04 z"
         id="path694" /></clipPath><clipPath
       clipPathUnits="userSpaceOnUse"
       id="clipPath704"><path
         d="m 410.52,526.2 h 7.56 v 10.92 h -7.56 z"
         id="path702" /></clipPath><clipPath
       clipPathUnits="userSpaceOnUse"
       id="clipPath716"><path
         d="m 405.12,526.44 h 5.52 v 10.68 h -5.52 z"
         id="path714" /></clipPath><clipPath
       clipPathUnits="userSpaceOnUse"
       id="clipPath1044"><path
         d="m 542.16,389.76 h 6.12 v 12.36 h -6.12 z"
         id="path1042" /></clipPath><clipPath
       clipPathUnits="userSpaceOnUse"
       id="clipPath1056"><path
         d="m 533.28,389.76 h 6 v 12.36 h -6 z"
         id="path1054" /></clipPath><clipPath
       clipPathUnits="userSpaceOnUse"
       id="clipPath1578"><path
         d="m 241.44,83.28 h 6.12 v 12.36 h -6.12 z"
         id="path1576" /></clipPath><clipPath
       clipPathUnits="userSpaceOnUse"
       id="clipPath1590"><path
         d="m 225.12,83.28 h 6.12 v 12.36 h -6.12 z"
         id="path1588" /></clipPath><clipPath
       clipPathUnits="userSpaceOnUse"
       id="clipPath1620"><path
         d="m 302.4,83.28 h 6.12 v 12.36 h -6.12 z"
         id="path1618" /></clipPath><clipPath
       clipPathUnits="userSpaceOnUse"
       id="clipPath1700"><path
         d="m 287.64,233.76 h 2.52 v 6.12 h -2.52 z"
         id="path1698" /></clipPath><clipPath
       clipPathUnits="userSpaceOnUse"
       id="clipPath1714"><path
         d="m 317.04,233.76 h 2.52 v 6.12 h -2.52 z"
         id="path1712" /></clipPath><clipPath
       clipPathUnits="userSpaceOnUse"
       id="clipPath1728"><path
         d="m 265.2,241.8 h 2.52 v 6 h -2.52 z"
         id="path1726" /></clipPath><clipPath
       clipPathUnits="userSpaceOnUse"
       id="clipPath1742"><path
         d="m 351,234.24 h 2.52 v 6 H 351 Z"
         id="path1740" /></clipPath><clipPath
       clipPathUnits="userSpaceOnUse"
       id="clipPath1756"><path
         d="m 263.64,268.2 h 2.52 v 6 h -2.52 z"
         id="path1754" /></clipPath><clipPath
       clipPathUnits="userSpaceOnUse"
       id="clipPath1770"><path
         d="m 263.64,297 h 2.52 v 6.12 h -2.52 z"
         id="path1768" /></clipPath><clipPath
       clipPathUnits="userSpaceOnUse"
       id="clipPath1790"><path
         d="m 382.92,237.36 h 5.76 v 10.2 h -5.76 z"
         id="path1788" /></clipPath><clipPath
       clipPathUnits="userSpaceOnUse"
       id="clipPath1802"><path
         d="m 374.16,237.6 h 5.52 v 9.96 h -5.52 z"
         id="path1800" /></clipPath></defs><sodipodi:namedview
     id="namedview4"
     pagecolor="#ffffff"
     bordercolor="#666666"
     borderopacity="1.0"
     inkscape:pageshadow="2"
     inkscape:pageopacity="0.0"
     inkscape:pagecheckerboard="0"
     showgrid="false"
     inkscape:zoom="11.313709"
     inkscape:cx="37.786019"
     inkscape:cy="57.761785"
     inkscape:window-width="1920"
     inkscape:window-height="1001"
     inkscape:window-x="1911"
     inkscape:window-y="86"
     inkscape:window-maximized="1"
     inkscape:current-layer="g8" /><g
     id="g8"
     inkscape:groupmode="layer"
     inkscape:label="Чистюхин, Лялин - Проектирование антенно-фидерных устройств. Методические указания"
     transform="matrix(1.3333333,0,0,-1.3333333,-219.83999,790.14512)"><path
       d="m 164.88,558.96 h 54 v 1.32 h -54 z"
       style="fill:#000000;fill-opacity:1;fill-rule:nonzero;stroke:none"
       id="path476" /><path
       d="m 218.28,558.95419 h 1.32 V 588.6 h -1.32 z"
       style="fill:#000000;fill-opacity:1;fill-rule:nonzero;stroke:none;stroke-width:1.01247"
       id="path478" /><path
       d="m 164.88,540.48 h 54 v 1.32 h -54 z"
       style="fill:#000000;fill-opacity:1;fill-rule:nonzero;stroke:none"
       id="path480" /><path
       d="m 218.28,512.16 h 1.32 v 29.62005 h -1.32 z"
       style="fill:#000000;fill-opacity:1;fill-rule:nonzero;stroke:none;stroke-width:1.00994"
       id="path482" /><path
       d="m 166.32,549.36 h 54.12 v 1.32 h -54.12 z"
       style="fill:#000000;fill-opacity:1;fill-rule:nonzero;stroke:none"
       id="path484" /><path
       d="M 219.46207,550.67379 C 218.66383,550.35074 220.44,549.36 220.44,549.36 l 2.52,4.56 0.96,1.8 0.96,1.44 0.96,1.44 -0.6,0.24 0.36,-0.36 1.08,1.08 0.72,1.08 0.84,0.72 0.72,0.6 -0.36,0.48 0.24,-0.6 0.72,0.36 0.6,0.12 -0.24,0.6 v -0.72 h 0.6 v 0.72 l -0.24,-0.72 0.6,-0.12 0.6,-0.36 0.24,0.6 -0.48,-0.48 0.6,-0.48 0.6,-0.6 0.72,-0.96 0.6,-0.96 0.6,0.48 -0.6,-0.24 0.72,-1.2 0.72,-1.44 0.6,-1.44 0.6,-1.44 0.24,-1.56 0.6,0.24 h -0.6 l 0.12,-1.44 -0.12,-0.84 -0.12,-0.84 h 0.72 l -0.72,0.36 -0.36,-2.04 -0.6,-1.92 -0.72,-2.04 -0.84,-1.92 -0.36,-0.96 -0.48,-0.84 -0.36,-0.6 -0.36,-0.72 0.6,-0.24 -0.6,0.6 -0.36,-0.6 -0.24,-0.24 -0.48,-0.24 0.48,-0.48 -0.24,0.6 -0.48,-0.12 0.24,-0.72 v 0.72 h -0.84 V 537 l 0.24,0.72 -0.96,0.36 -0.96,0.48 -0.24,-0.6 0.48,0.48 -0.84,0.72 -0.72,0.96 -0.6,-0.36 0.72,0.24 -0.48,0.96 -0.6,-0.24 h 0.6 l -0.24,1.2 h -0.6 0.6 v 0.6 l 0.12,0.72 h -0.72 l 0.6,-0.36 0.36,1.8 0.6,1.92 0.6,1.92 0.84,2.04 0.84,2.04 0.96,1.68 0.6,0.72 -0.6,0.36 0.36,-0.48 0.6,0.72 0.96,1.08 1.08,0.96 1.32,0.84 -0.6,0.48 0.36,-0.6 1.32,0.72 1.32,0.72 1.44,0.48 2.76,0.96 -0.36,1.32 -3,-0.96 -1.44,-0.6 -1.32,-0.6 -1.32,-0.84 -0.12,-0.12 -1.32,-0.84 -1.08,-0.96 -1.08,-1.32 -0.48,-0.48 -0.12,-0.24 -0.48,-0.72 -0.96,-1.8 -0.96,-1.92 -0.72,-2.04 -0.6,-2.04 -0.6,-1.92 -0.36,-1.68 v -0.24 l -0.12,-0.72 v -0.72 l 0.24,-1.08 0.12,-0.24 0.36,-0.96 0.24,-0.36 0.72,-0.96 0.84,-0.72 0.24,-0.12 0.96,-0.6 0.96,-0.36 h 1.44 l 0.36,0.24 0.24,0.12 0.36,0.12 0.48,0.36 0.24,0.48 0.24,0.24 0.36,0.6 0.48,0.72 0.36,0.84 0.36,0.84 0.96,1.92 0.72,2.16 0.6,1.92 0.36,1.92 v 0.24 l 0.12,0.84 0.12,0.84 h -0.72 l 0.72,-0.12 -0.12,1.56 -0.12,0.36 -0.24,1.44 -0.48,1.56 -0.6,1.44 -0.84,1.44 -0.72,1.08 -0.12,0.24 -0.72,1.08 -0.72,0.72 -0.6,0.72 -0.6,0.48 -0.12,0.12 -0.72,0.36 -0.6,0.24 -0.24,0.12 h -0.84 l -0.72,-0.24 -0.6,-0.36 -0.36,-0.12 -0.6,-0.6 0.36,-0.48 -0.36,0.6 -0.96,-0.84 -0.84,-1.08 -0.96,-1.08 -0.12,-0.36 -0.96,-1.32 -0.84,-1.56 -0.96,-1.68 -1.89949,-3.5591"
       style="fill:#000000;fill-opacity:1;fill-rule:nonzero;stroke:none"
       id="path486"
       sodipodi:nodetypes="cccccccccccccccccccccccccccccccccccccccccccccccccccccccccccccccccccccccccccccccccccccccccccccccccccccccccccccccccccccccccccccccccccccccccccccccccccccccccccccccccccccccccccccccccccccc" /><path
       d="m 241.22039,562.40109 0.0502,-1.41679 0.27797,0.0764 0.21937,0.0909 0.50625,0.12914 0.96586,-0.0408 h 1.2 l 1.32,0.24 h 0.72 l 0.6,-0.12 v 0.72 l -0.24,-0.6 0.72,-0.36 0.24,0.6 -0.48,-0.48 0.72,-0.48 0.6,-0.96 0.72,-0.96 0.48,0.48 -0.6,-0.24 0.72,-1.2 0.84,-1.44 0.6,-1.44 0.48,-1.44 0.36,-1.56 0.6,0.24 h -0.6 v -2.28 l -0.12,-0.84 h 0.6 l -0.6,0.36 -0.36,-2.04 -0.6,-1.92 -0.72,-2.04 -0.96,-1.92 -0.36,-0.96 -0.36,-0.84 -0.48,-0.6 -0.36,-0.72 0.6,-0.24 -0.48,0.6 -0.36,-0.6 -0.24,-0.24 -0.6,-0.24 0.6,-0.48 -0.36,0.6 -0.36,-0.12 0.24,-0.72 v 0.72 h -0.84 V 537 l 0.24,0.72 -0.96,0.36 -0.96,0.48 -0.36,-0.6 0.6,0.48 -0.96,0.72 -0.72,0.96 -0.48,-0.36 0.6,0.24 -0.48,0.96 -0.6,-0.24 h 0.6 l -0.12,1.2 h -0.72 0.72 v 0.6 l 0.12,0.72 h -0.72 l 0.6,-0.36 0.36,1.8 0.48,1.92 0.72,1.92 0.72,2.04 0.96,2.04 0.96,1.68 0.48,0.72 -0.6,0.36 0.48,-0.48 0.48,0.72 0.96,1.08 1.2,0.96 1.2,0.84 -0.48,0.48 0.24,-0.6 1.32,0.72 1.32,0.72 1.44,0.48 2.88,0.96 -0.48,1.32 -2.88,-0.96 -1.44,-0.6 -1.32,-0.6 -1.32,-0.84 -0.24,-0.12 -1.2,-0.84 -1.2,-0.96 -1.08,-1.32 -0.36,-0.48 -0.12,-0.24 -0.6,-0.72 -0.96,-1.8 -0.84,-1.92 -0.84,-2.04 -0.6,-2.04 -0.48,-1.92 -0.36,-1.68 v -0.24 l -0.12,-0.72 v -0.72 l 0.12,-1.08 0.12,-0.24 0.48,-0.96 0.12,-0.36 0.72,-0.96 0.96,-0.72 0.12,-0.12 0.96,-0.6 0.96,-0.36 h 1.44 l 0.48,0.24 0.12,0.12 0.36,0.12 0.48,0.36 0.36,0.48 0.12,0.24 0.36,0.6 0.48,0.72 0.48,0.84 0.36,0.84 0.84,1.92 0.72,2.16 0.6,1.92 0.36,1.92 0.12,0.24 0.12,0.84 v 0.84 h -0.6 l 0.6,-0.12 v 1.56 l -0.12,0.36 -0.24,1.44 -0.6,1.56 -0.6,1.44 -0.84,1.44 -0.6,1.08 -0.24,0.24 -0.72,1.08 -0.6,0.72 -0.72,0.6 -0.12,0.12 -0.72,0.36 h -0.36 l -0.6,0.12 h -0.72 l -1.32,-0.24 h -0.6 v -0.72 l 0.24,0.72 h -0.6 l -0.72,0.12 c -0.16,0.08 0.23512,-0.064 -0.41555,0.10523 l -0.45609,-0.0209 c -0.16,0.04 0.91446,-3.88413 0,0"
       style="fill:#000000;fill-opacity:1;fill-rule:nonzero;stroke:none"
       id="path488"
       sodipodi:nodetypes="cccccccccccccccccccccccccccccccccccccccccccccccccccccccccccccccccccccccccccccccccccccccccccccccccccccccccccccccccccccccccccccccccccccccccccccccccccccccccccccccccccc" /><path
       d="M 256.52754,562.34543 256.44,562.08 l 0.36,-0.24 0.48,-0.12 0.36004,-0.48 1.09653,0.1533 1.171,0.0331 1.45243,0.0536 h 0.6 l 0.72,-0.12 v 0.72 l -0.24,-0.6 0.72,-0.36 0.24,0.6 -0.6,-0.48 0.72,-0.48 0.72,-0.96 0.6,-0.96 0.6,0.48 -0.6,-0.24 0.72,-1.2 0.72,-1.44 0.6,-1.44 0.6,-1.44 0.24,-1.56 0.6,0.24 h -0.6 l 0.12,-1.44 -0.12,-0.84 -0.12,-0.84 h 0.72 l -0.72,0.36 -0.36,-2.04 -0.6,-1.92 -0.72,-2.04 -0.84,-1.92 -0.36,-0.96 -0.48,-0.84 -0.36,-0.6 -0.36,-0.72 0.6,-0.24 -0.6,0.6 -0.36,-0.6 -0.24,-0.24 -0.48,-0.24 0.48,-0.48 -0.24,0.6 -0.48,-0.12 0.24,-0.72 v 0.72 H 261.6 V 537 l 0.24,0.72 -0.96,0.36 -0.96,0.48 -0.24,-0.6 0.48,0.48 -0.84,0.72 -0.72,0.96 -0.6,-0.36 0.72,0.24 -0.48,0.96 -0.6,-0.24 h 0.6 l -0.24,1.2 h -0.6 0.6 v 0.6 l 0.12,0.72 h -0.72 l 0.6,-0.36 0.36,1.8 0.6,1.92 0.6,1.92 0.84,2.04 0.84,2.04 0.96,1.68 0.6,0.72 -0.6,0.36 0.36,-0.48 0.6,0.72 0.96,1.08 1.08,0.96 1.32,0.84 -0.6,0.48 0.36,-0.6 1.32,0.72 1.32,0.72 1.44,0.48 2.76,0.96 -0.36,1.32 -3,-0.96 -1.44,-0.6 -1.32,-0.6 -1.32,-0.84 -0.12,-0.12 -1.32,-0.84 -1.08,-0.96 -1.08,-1.32 -0.48,-0.48 -0.12,-0.24 -0.48,-0.72 -0.96,-1.8 -0.96,-1.92 -0.72,-2.04 -0.6,-2.04 -0.6,-1.92 -0.36,-1.68 v -0.24 l -0.12,-0.72 v -0.72 l 0.24,-1.08 0.12,-0.24 0.36,-0.96 0.24,-0.36 0.72,-0.96 0.84,-0.72 0.24,-0.12 0.96,-0.6 0.96,-0.36 h 1.44 l 0.36,0.24 0.24,0.12 0.36,0.12 0.48,0.36 0.36,0.48 0.12,0.24 0.36,0.6 0.48,0.72 0.36,0.84 0.36,0.84 0.96,1.92 0.72,2.16 0.6,1.92 0.36,1.92 0.12,0.24 v 0.84 l 0.12,0.84 h -0.72 l 0.72,-0.12 -0.12,1.56 v 0.36 l -0.36,1.44 -0.48,1.56 -0.6,1.44 -0.84,1.44 -0.72,1.08 -0.12,0.24 -0.72,1.08 -0.6,0.72 -0.72,0.6 -0.24,0.12 -0.72,0.36 h -0.24 l -0.72,0.12 h -0.6 l -1.411,0.0376 -0.46757,-0.0166 -0.45115,-0.0124 0.64972,-0.24859 -0.64972,0.24859 -0.691,-0.0291 -0.46795,-0.0528 -0.40688,-0.05 -0.52968,-0.18469"
       style="fill:#000000;fill-opacity:1;fill-rule:nonzero;stroke:none"
       id="path490"
       sodipodi:nodetypes="ccccccccccccccccccccccccccccccccccccccccccccccccccccccccccccccccccccccccccccccccccccccccccccccccccccccccccccccccccccccccccccccccccccccccccccccccccccccccccccccccccccc" /><path
       d="m 272.00449,562.31613 0.0355,-0.23613 0.36,-0.24 0.36,-0.12 0.36,-0.48 h 1.2 1.2 l 1.32,0.24 h 0.72 l 0.6,-0.12 v 0.72 l -0.24,-0.6 0.72,-0.36 0.24,0.6 -0.48,-0.48 0.72,-0.48 0.6,-0.96 0.72,-0.96 0.48,0.48 -0.6,-0.24 0.72,-1.2 0.84,-1.44 0.6,-1.44 0.48,-1.44 0.36,-1.56 0.6,0.24 h -0.6 v -2.28 l -0.12,-0.84 h 0.6 l -0.6,0.36 -0.36,-2.04 -0.6,-1.92 -0.72,-2.04 -0.96,-1.92 -0.36,-0.96 -0.36,-0.84 -0.48,-0.6 -0.36,-0.72 0.6,-0.24 -0.48,0.6 -0.36,-0.6 -0.24,-0.24 -0.6,-0.24 0.6,-0.48 -0.36,0.6 -0.36,-0.12 0.24,-0.72 v 0.72 H 277.2 V 537 l 0.24,0.72 -0.96,0.36 -0.96,0.48 -0.36,-0.6 0.6,0.48 -0.96,0.72 -0.72,0.96 -0.48,-0.36 0.6,0.24 -0.48,0.96 -0.6,-0.24 h 0.6 l -0.12,1.2 h -0.72 0.72 v 0.6 l 0.12,0.72 H 273 l 0.6,-0.36 0.36,1.8 0.48,1.92 0.72,1.92 0.72,2.04 0.96,2.04 0.96,1.68 0.48,0.72 -0.6,0.36 0.48,-0.48 0.48,0.72 0.96,1.08 1.2,0.96 1.2,0.84 -0.48,0.48 0.24,-0.6 1.32,0.72 1.32,0.72 1.44,0.48 2.88,0.96 -0.48,1.32 -2.88,-0.96 -1.44,-0.6 -1.32,-0.6 -1.32,-0.84 -0.24,-0.12 -1.2,-0.84 -1.2,-0.96 -1.08,-1.32 -0.36,-0.48 -0.12,-0.24 -0.6,-0.72 -0.96,-1.8 -0.84,-1.92 -0.84,-2.04 -0.6,-2.04 -0.48,-1.92 -0.36,-1.68 v -0.24 l -0.12,-0.72 v -0.72 l 0.12,-1.08 0.12,-0.24 0.48,-0.96 0.12,-0.36 0.72,-0.96 0.96,-0.72 0.12,-0.12 0.96,-0.6 0.96,-0.36 h 1.44 l 0.48,0.24 0.12,0.12 0.36,0.12 0.48,0.36 0.36,0.48 0.12,0.24 0.36,0.6 0.48,0.72 0.48,0.84 0.36,0.84 0.84,1.92 0.72,2.16 0.6,1.92 0.36,1.92 0.12,0.24 0.12,0.84 v 0.84 h -0.6 l 0.6,-0.12 v 1.56 l -0.12,0.36 -0.24,1.44 -0.6,1.56 -0.6,1.44 -0.72,1.44 -0.72,1.08 -0.24,0.24 -0.72,1.08 -0.6,0.72 -0.72,0.6 -0.12,0.12 -0.72,0.36 h -0.36 l -0.6,0.12 h -0.72 l -1.57228,3.1e-4 L 274.92,562.56 v -0.72 l 0.34772,0.96031 -0.65386,0.10772 -0.72012,-0.0343 -0.33159,-0.0386 -0.47414,-0.0354 -0.47707,-0.17297"
       style="fill:#000000;fill-opacity:1;fill-rule:nonzero;stroke:none"
       id="path492"
       sodipodi:nodetypes="cccccccccccccccccccccccccccccccccccccccccccccccccccccccccccccccccccccccccccccccccccccccccccccccccccccccccccccccccccccccccccccccccccccccccccccccccccccccccccccccccccc" /><path
       d="M 287.37023,562.25461 C 287.26929,561.79745 287.64,562.48 287.52,562.08 l 0.36,-0.24 0.48,-0.12 0.36,-0.48 h 1.08 1.2 l 1.44,0.24 h 0.6 l 0.72,-0.12 v 0.72 l -0.24,-0.6 0.72,-0.36 0.24,0.6 -0.6,-0.48 0.72,-0.48 0.72,-0.96 0.6,-0.96 0.6,0.48 -0.6,-0.24 0.72,-1.2 0.72,-1.44 0.6,-1.44 0.6,-1.44 0.24,-1.56 0.6,0.24 h -0.6 l 0.12,-1.44 -0.12,-0.84 -0.12,-0.84 h 0.72 l -0.72,0.36 -0.36,-2.04 -0.6,-1.92 -0.72,-2.04 -0.84,-1.92 -0.36,-0.96 -0.48,-0.84 -0.36,-0.6 -0.36,-0.72 0.6,-0.24 -0.6,0.6 -0.36,-0.6 -0.24,-0.24 -0.48,-0.24 0.48,-0.48 -0.24,0.6 -0.48,-0.12 0.24,-0.72 v 0.72 h -0.84 V 537 l 0.24,0.72 -0.96,0.36 -0.96,0.48 -0.24,-0.6 0.48,0.48 -0.84,0.72 -0.72,0.96 -0.6,-0.36 0.72,0.24 -0.48,0.96 -0.6,-0.24 h 0.6 l -0.24,1.2 h -0.6 0.6 v 0.6 l 0.12,0.72 h -0.72 l 0.6,-0.36 0.36,1.8 0.6,1.92 0.6,1.92 0.84,2.04 0.84,2.04 0.96,1.68 0.6,0.72 -0.6,0.36 0.36,-0.48 0.6,0.72 0.96,1.08 1.08,0.96 1.32,0.84 -0.6,0.48 0.36,-0.6 1.32,0.72 1.32,0.72 1.44,0.48 2.76,0.96 -0.36,1.32 -3,-0.96 -1.44,-0.6 -1.32,-0.6 -1.32,-0.84 -0.12,-0.12 -1.32,-0.84 -1.08,-0.96 -1.08,-1.32 -0.48,-0.48 -0.12,-0.24 -0.48,-0.72 -0.96,-1.8 -0.96,-1.92 -0.72,-2.04 -0.6,-2.04 -0.6,-1.92 -0.36,-1.68 v -0.24 l -0.12,-0.72 v -0.72 l 0.24,-1.08 0.12,-0.24 0.36,-0.96 0.24,-0.36 0.72,-0.96 0.84,-0.72 0.24,-0.12 0.96,-0.6 0.96,-0.36 h 1.44 l 0.36,0.24 0.24,0.12 0.36,0.12 0.48,0.36 0.36,0.48 0.12,0.24 0.36,0.6 0.48,0.72 0.36,0.84 0.36,0.84 0.96,1.92 0.72,2.16 0.6,1.92 0.36,1.92 0.12,0.24 v 0.84 l 0.12,0.84 h -0.72 l 0.72,-0.12 -0.12,1.56 v 0.36 l -0.36,1.44 -0.48,1.56 -0.6,1.44 -0.84,1.44 -0.72,1.08 -0.12,0.24 -0.72,1.08 -0.6,0.72 -0.72,0.6 -0.24,0.12 -0.72,0.36 -0.23707,0.0703 -0.69949,0.10535 -0.63223,0.0527 -1.62726,0.0852 L 290.52,562.56 v -0.72 l 0.28395,1.15359 -0.62051,-0.0117 -0.72,-0.0206 -0.62344,-0.0412 -0.37758,-0.094 -0.25722,-0.1261"
       style="fill:#000000;fill-opacity:1;fill-rule:nonzero;stroke:none"
       id="path494"
       sodipodi:nodetypes="ccccccccccccccccccccccccccccccccccccccccccccccccccccccccccccccccccccccccccccccccccccccccccccccccccccccccccccccccccccccccccccccccccccccccccccccccccccccccccccccccccccc" /><path
       d="m 303.84,562.56 0.36,-1.32 -1.44,0.6 0.36,-0.12 0.55028,-0.49274 1.00972,0.0127 0.12,0.6 -0.6,-0.6 1.68,0 1.32,0.24 h 0.72 l 0.72,-0.12 v 0.72 l -0.36,-0.6 0.72,-0.36 0.24,0.6 -0.48,-0.48 0.72,-0.48 0.6,-0.96 0.72,-0.96 0.48,0.48 -0.6,-0.24 0.72,-1.2 0.72,-1.44 0.6,-1.44 0.6,-1.44 0.36,-1.56 0.6,0.24 h -0.72 l 0.12,-1.44 v -0.84 l -0.12,-0.84 h 0.6 l -0.6,0.36 -0.36,-2.04 -0.6,-1.92 -0.72,-2.04 -0.84,-1.92 -0.36,-0.96 -0.48,-0.84 -0.48,-0.6 -0.36,-0.72 0.6,-0.24 -0.48,0.6 -0.36,-0.6 -0.24,-0.24 -0.6,-0.24 0.6,-0.48 -0.24,0.6 -0.48,-0.12 0.24,-0.72 v 0.72 h -0.84 V 537 l 0.24,0.72 -0.96,0.36 -0.96,0.48 -0.36,-0.6 0.6,0.48 -0.96,0.72 -0.72,0.96 -0.48,-0.36 0.6,0.24 -0.48,0.96 -0.12,0.6 -0.6,-0.24 h 0.6 v 0.6 0.6 l 0.12,0.72 h -0.6 l 0.6,-0.24 0.12,0.84 0.36,0.96 0.6,2.04 0.96,2.16 0.84,2.16 0.84,1.8 0.48,0.96 0.24,0.72 0.36,0.6 0.12,0.48 -0.6,0.36 0.6,-0.36 0.24,0.36 0.12,0.24 -0.6,0.36 0.48,-0.6 0.12,0.24 h 0.12 L 309,556.8 v -0.6 h 0.24 -0.6 0.24 l 0.24,0.6 -0.48,-0.48 -0.12,0.24 v -0.24 l 0.6,0.24 h -0.6 v -0.48 -0.72 l 0.12,-0.24 v -0.24 l 0.12,-0.24 0.96,1.08 -0.12,0.12 0.24,-0.12 -0.6,-0.36 h 0.6 v 0.36 0.84 l -0.12,0.24 v 0.24 l -0.12,0.24 -0.24,0.12 h -0.12 l -0.24,0.12 -0.36,-0.12 h -0.12 l -0.12,-0.12 -0.12,-0.24 -0.12,-0.12 -0.24,-0.24 v -0.36 h -0.12 l -0.24,-0.6 -0.36,-0.6 -0.24,-0.72 -0.36,-0.84 -0.84,-1.92 -0.96,-2.16 -0.84,-2.04 -0.72,-2.16 -0.24,-0.96 -0.24,-0.72 v -0.36 l -0.12,-0.72 v -1.2 l 0.12,-0.24 v -0.6 l 0.6,-0.96 0.12,-0.36 0.72,-0.96 0.96,-0.72 0.12,-0.12 0.96,-0.6 0.96,-0.36 h 1.44 l 0.48,0.24 0.12,0.12 0.36,0.12 0.48,0.36 0.36,0.48 0.24,0.24 0.36,0.6 0.36,0.72 0.48,0.84 0.36,0.84 0.84,1.92 0.72,2.16 0.6,1.92 0.36,1.92 0.12,0.24 0.12,0.84 0.12,0.84 -0.24,1.44 v 0.36 l -0.36,1.44 -0.48,1.56 -0.6,1.44 -0.72,1.44 -0.72,1.08 -0.24,0.24 -0.72,1.08 -0.6,0.72 -0.72,0.6 -0.12,0.12 -0.72,0.36 h -0.24 l -0.72,0.12 H 307.2 L 305.52414,562.67187 305.28,562.56 v -0.72 l 0.24414,0.83187 -0.54614,-0.029 -0.18138,-0.0167 -0.43442,-0.009 -0.19827,-3.1e-4 -0.15268,-0.004"
       style="fill:#000000;fill-opacity:1;fill-rule:nonzero;stroke:none"
       id="path496"
       sodipodi:nodetypes="cccccccccccccccccccccccccccccccccccccccccccccccccccccccccccccccccccccccccccccccccccccccccccccccccccccccccccccccccccccccccccccccccccccccccccccccccccccccccccccccccccccccccccccccccccccccccccccccc" /><path
       d="m 195.24,512.88 h 23.64"
       style="fill:none;stroke:#000000;stroke-width:0.48;stroke-linecap:round;stroke-linejoin:round;stroke-miterlimit:10;stroke-dasharray:none;stroke-opacity:1"
       id="path498" /><path
       d="m 195.24,588.6 h 23.64"
       style="fill:none;stroke:#000000;stroke-width:0.48;stroke-linecap:round;stroke-linejoin:round;stroke-miterlimit:10;stroke-dasharray:none;stroke-opacity:1"
       id="path500" /><path
       d="M 200.4,582.96 V 518.52"
       style="fill:none;stroke:#000000;stroke-width:0.48;stroke-linecap:round;stroke-linejoin:round;stroke-miterlimit:10;stroke-dasharray:none;stroke-opacity:1"
       id="path502" /><path
       d="m 203.4,582.72 -2.88,5.88 -2.88,-5.88 h 5.76"
       style="fill:#000000;fill-opacity:1;fill-rule:evenodd;stroke:none"
       id="path504" /><path
       d="m 197.64,518.76 2.88,-5.88 2.88,5.88 h -5.76"
       style="fill:#000000;fill-opacity:1;fill-rule:evenodd;stroke:none"
       id="path506" /><path
       d="m 318.84,549.36 h 27.72"
       style="fill:none;stroke:#000000;stroke-width:0.48;stroke-linecap:round;stroke-linejoin:round;stroke-miterlimit:10;stroke-dasharray:none;stroke-opacity:1"
       id="path508" /><path
       d="m 346.32,546.36 5.88,2.88 -5.88,3 v -5.88"
       style="fill:#000000;fill-opacity:1;fill-rule:evenodd;stroke:none"
       id="path510" /><path
       d="m 308.4,562.68 h 31.92"
       style="fill:none;stroke:#000000;stroke-width:0.48;stroke-linecap:round;stroke-linejoin:round;stroke-miterlimit:10;stroke-dasharray:none;stroke-opacity:1"
       id="path512" /><path
       d="m 308.4,536.76 h 31.92"
       style="fill:none;stroke:#000000;stroke-width:0.48;stroke-linecap:round;stroke-linejoin:round;stroke-miterlimit:10;stroke-dasharray:none;stroke-opacity:1"
       id="path514" /><path
       d="m 314.4,550.8 v 37.8"
       style="fill:none;stroke:#000000;stroke-width:0.48;stroke-linecap:round;stroke-linejoin:round;stroke-miterlimit:10;stroke-dasharray:none;stroke-opacity:1"
       id="path516" /><path
       d="m 224.52,580.56 h 84.24"
       style="fill:none;stroke:#000000;stroke-width:0.48;stroke-linecap:round;stroke-linejoin:round;stroke-miterlimit:10;stroke-dasharray:none;stroke-opacity:1"
       id="path518" /><path
       d="m 224.76,583.32 -5.76,-2.88 5.76,-2.88 v 5.76"
       style="fill:#000000;fill-opacity:1;fill-rule:evenodd;stroke:none"
       id="path520" /><path
       d="m 308.64,577.56 5.76,2.88 -5.76,2.88 v -5.76"
       style="fill:#000000;fill-opacity:1;fill-rule:evenodd;stroke:none"
       id="path522" /><path
       d="M 335.04,588.6 V 568.32"
       style="fill:none;stroke:#000000;stroke-width:0.48;stroke-linecap:round;stroke-linejoin:round;stroke-miterlimit:10;stroke-dasharray:none;stroke-opacity:1"
       id="path524" /><path
       d="m 332.16,568.44 3,-5.88 2.88,5.88 h -5.88"
       style="fill:#000000;fill-opacity:1;fill-rule:evenodd;stroke:none"
       id="path526" /><path
       d="m 334.32,531.12 v -7.8"
       style="fill:none;stroke:#000000;stroke-width:0.48;stroke-linecap:round;stroke-linejoin:round;stroke-miterlimit:10;stroke-dasharray:none;stroke-opacity:1"
       id="path528" /><path
       d="m 337.32,530.88 -2.88,5.76 -3,-5.76 h 5.88"
       style="fill:#000000;fill-opacity:1;fill-rule:evenodd;stroke:none"
       id="path530" /><path
       d="M 334.32,562.68 V 536.04"
       style="fill:none;stroke:#000000;stroke-width:0.48;stroke-linecap:round;stroke-linejoin:round;stroke-miterlimit:10;stroke-dasharray:none;stroke-opacity:1"
       id="path532" /><g
       id="g536"
       clip-path="url(#clipPath540)"><text
         transform="matrix(0,1,1,0,192.6,565.44)"
         style="font-style:italic;font-variant:normal;font-size:10.44px;font-family:'Times New Roman';-inkscape-font-specification:'TimesNewRoman Italic';writing-mode:lr-tb;fill:#000000;fill-opacity:1;fill-rule:nonzero;stroke:none"
         id="text544"><tspan
           x="0"
           y="0"
           id="tspan542">D</tspan></text></g><text
       transform="matrix(0,1,1,0,0,0)"
       style="font-variant:normal;font-weight:normal;font-size:7.8px;font-family:'Times New Roman';-inkscape-font-specification:TimesNewRoman;writing-mode:lr-tb;fill:#000000;fill-opacity:1;fill-rule:nonzero;stroke:none"
       id="text550"
       x="572.88"
       y="196.08"><tspan
         x="572.88"
         y="196.08"
         id="tspan548">э</tspan></text><g
       id="g554"
       clip-path="url(#clipPath558)" /><g
       id="g562"
       clip-path="url(#clipPath566)"><text
         transform="matrix(0,1,1,0,330.72,573.72)"
         style="font-style:italic;font-variant:normal;font-size:10.44px;font-family:'Times New Roman';-inkscape-font-specification:'TimesNewRoman Italic';writing-mode:lr-tb;fill:#000000;fill-opacity:1;fill-rule:nonzero;stroke:none"
         id="text570"><tspan
           x="0"
           y="0"
           id="tspan568">D</tspan></text></g><text
       transform="scale(1,-1)"
       style="font-style:italic;font-variant:normal;font-size:10.44px;font-family:'Times New Roman';-inkscape-font-specification:'TimesNewRoman Italic';writing-mode:lr-tb;fill:#000000;fill-opacity:1;fill-rule:nonzero;stroke:none"
       id="text576"
       x="234.36"
       y="-523.08002"><tspan
         x="234.36"
         y="-523.08002"
         id="tspan574">S</tspan></text><g
       id="g580"
       clip-path="url(#clipPath584)" /><path
       d="M 230.04,536.64 V 512.16"
       style="fill:none;stroke:#000000;stroke-width:0.48;stroke-linecap:round;stroke-linejoin:round;stroke-miterlimit:10;stroke-dasharray:none;stroke-opacity:1"
       id="path588" /><path
       d="M 246.24,536.64 V 512.16"
       style="fill:none;stroke:#000000;stroke-width:0.48;stroke-linecap:round;stroke-linejoin:round;stroke-miterlimit:10;stroke-dasharray:none;stroke-opacity:1"
       id="path590" /><path
       d="m 235.56,516.6 h 5.04"
       style="fill:none;stroke:#000000;stroke-width:0.48;stroke-linecap:round;stroke-linejoin:round;stroke-miterlimit:10;stroke-dasharray:none;stroke-opacity:1"
       id="path592" /><path
       d="m 235.8,519.48 -5.76,-3 5.76,-2.88 v 5.88"
       style="fill:#000000;fill-opacity:1;fill-rule:evenodd;stroke:none"
       id="path594" /><path
       d="m 240.48,513.6 5.88,2.88 -5.88,3 v -5.88"
       style="fill:#000000;fill-opacity:1;fill-rule:evenodd;stroke:none"
       id="path596" /><g
       id="g600"
       clip-path="url(#clipPath604)"><text
         transform="matrix(1,0,0,-1,344.64,537.96)"
         style="font-style:italic;font-variant:normal;font-size:10.44px;font-family:'Times New Roman';-inkscape-font-specification:'TimesNewRoman Italic';writing-mode:lr-tb;fill:#000000;fill-opacity:1;fill-rule:nonzero;stroke:none"
         id="text608"><tspan
           x="0"
           y="0"
           id="tspan606">z</tspan></text></g><g
       id="g612"
       clip-path="url(#clipPath616)" /><text
       transform="scale(1,-1)"
       style="font-style:italic;font-variant:normal;font-size:10.44px;font-family:'Times New Roman';-inkscape-font-specification:'TimesNewRoman Italic';writing-mode:lr-tb;fill:#000000;fill-opacity:1;fill-rule:nonzero;stroke:none"
       id="text622"
       x="256.56"
       y="-585.35999"><tspan
         x="256.56 259.46231 262.07233 269.11932 271.72931 276.94931"
         y="-585.35999"
         sodipodi:role="line"
         id="tspan620">l = nS</tspan></text><g
       id="g626"
       clip-path="url(#clipPath630)" /><path
       d="m 360.96,537.36 96.96,33.48 v -33.48 z"
       style="fill:#ffffff;fill-opacity:1;fill-rule:evenodd;stroke:#000000;stroke-width:1.32;stroke-linecap:round;stroke-linejoin:round;stroke-miterlimit:10;stroke-dasharray:none;stroke-opacity:1"
       id="path634" /><path
       d="m 376.56,543.96 v -1.44 h 1.08 v 0.72 l -0.36,-0.72 0.96,-0.24 0.96,-0.6 0.24,0.6 -0.48,-0.48 0.72,-0.72 0.72,-0.96 0.48,0.6 -0.6,-0.24 0.36,-1.08 0.36,-1.08 0.72,0.24 H 381 l 0.12,-1.2 h 1.32 l -0.12,1.2 v 0.24 l -0.36,1.08 -0.48,1.08 -0.12,0.24 -0.72,0.84 -0.6,0.72 -0.36,0.12 -0.84,0.6 -0.96,0.36 h -0.24 l -1.08,0.12"
       style="fill:#000000;fill-opacity:1;fill-rule:nonzero;stroke:none"
       id="path636" /><path
       d="m 457.92,547.8 v 1.32 h -1.08 l -1.08,-0.12 -0.24,-0.12 -1.08,-0.24 -1.08,-0.48 -0.96,-0.36 -0.96,-0.72 h -0.12 l -0.96,-0.72 -0.72,-0.84 -1.32,-1.8 -0.24,-0.12 -0.48,-1.08 -0.48,-0.96 -0.36,-1.08 -0.24,-1.2 -0.12,-0.24 -0.12,-1.2 v -1.2 h 1.32 v 1.2 l 0.12,1.2 h -0.6 l 0.6,-0.24 0.24,1.08 0.36,1.08 0.48,1.08 0.6,0.96 -0.72,0.24 0.6,-0.48 1.32,1.8 0.84,0.72 0.84,0.72 -0.6,0.48 0.36,-0.6 0.84,0.6 0.96,0.48 1.08,0.48 1.08,0.24 -0.24,0.6 v -0.6 l 1.08,0.12 h 1.08"
       style="fill:#000000;fill-opacity:1;fill-rule:nonzero;stroke:none"
       id="path638" /><text
       transform="scale(1,-1)"
       style="font-style:italic;font-variant:normal;font-size:10.44px;font-family:'Times New Roman';-inkscape-font-specification:'TimesNewRoman Italic';writing-mode:lr-tb;fill:#000000;fill-opacity:1;fill-rule:nonzero;stroke:none"
       id="text642"
       x="461.51999"
       y="-553.44"><tspan
         x="461.51999"
         y="-553.44"
         id="tspan640">S</tspan></text><g
       id="g646"
       clip-path="url(#clipPath650)" /><g
       id="g654"
       clip-path="url(#clipPath658)"><text
         transform="matrix(1,0,0,-1,380.4,564.24)"
         style="font-variant:normal;font-weight:normal;font-size:12px;font-family:Symbol;-inkscape-font-specification:Symbol;writing-mode:lr-tb;fill:#000000;fill-opacity:1;fill-rule:nonzero;stroke:none"
         id="text662"><tspan
           x="0"
           y="0"
           id="tspan660">α</tspan></text></g><g
       id="g666"
       clip-path="url(#clipPath670)" /><path
       d="m 387.48,541.08 1.08,0.36 0.72,0.48 0.72,0.6 0.6,0.72 0.36,1.32 0.36,1.56 0.12,1.8 v 1.92 l -0.12,2.04 -0.24,2.28 -0.48,4.68"
       style="fill:none;stroke:#000000;stroke-width:0.48;stroke-linecap:round;stroke-linejoin:round;stroke-miterlimit:10;stroke-dasharray:none;stroke-opacity:1"
       id="path674" /><path
       d="m 387.48,543.96 -5.76,-2.88 5.76,-3 v 5.88"
       style="fill:#000000;fill-opacity:1;fill-rule:evenodd;stroke:none"
       id="path676" /><g
       id="g680"
       clip-path="url(#clipPath684)"><text
         transform="matrix(1,0,0,-1,407.52,562.32)"
         style="font-style:italic;font-variant:normal;font-size:10.44px;font-family:'Times New Roman';-inkscape-font-specification:'TimesNewRoman Italic';writing-mode:lr-tb;fill:#000000;fill-opacity:1;fill-rule:nonzero;stroke:none"
         id="text688"><tspan
           x="0"
           y="0"
           id="tspan686">L</tspan></text></g><g
       id="g692"
       clip-path="url(#clipPath696)" /><g
       id="g700"
       clip-path="url(#clipPath704)"><text
         transform="matrix(1,0,0,-1,410.64,528.72)"
         style="font-style:italic;font-variant:normal;font-size:10.32px;font-family:'Times New Roman';-inkscape-font-specification:'TimesNewRoman Italic';writing-mode:lr-tb;fill:#000000;fill-opacity:1;fill-rule:nonzero;stroke:none"
         id="text708"><tspan
           x="0"
           y="0"
           id="tspan706">D</tspan></text></g><g
       id="g712"
       clip-path="url(#clipPath716)"><text
         transform="matrix(1,0,0,-1,405.12,528.72)"
         style="font-variant:normal;font-weight:normal;font-size:10.32px;font-family:Symbol;-inkscape-font-specification:Symbol;writing-mode:lr-tb;fill:#000000;fill-opacity:1;fill-rule:nonzero;stroke:none"
         id="text720"><tspan
           x="0"
           y="0"
           id="tspan718">π</tspan></text></g><text
       transform="scale(1,-1)"
       style="font-variant:normal;font-weight:bold;font-size:9px;font-family:'Times New Roman';-inkscape-font-specification:'TimesNewRoman Bold';writing-mode:lr-tb;fill:#000000;fill-opacity:1;fill-rule:nonzero;stroke:none"
       id="text726"
       x="255.12"
       y="-501"><tspan
         x="255.12"
         y="-501"
         id="tspan724">а</tspan></text><text
       transform="scale(1,-1)"
       style="font-variant:normal;font-weight:bold;font-size:9px;font-family:'Times New Roman';-inkscape-font-specification:'TimesNewRoman Bold';writing-mode:lr-tb;fill:#000000;fill-opacity:1;fill-rule:nonzero;stroke:none"
       id="text730"
       x="259.56"
       y="-501"><tspan
         x="259.56 262.55701"
         y="-501"
         sodipodi:role="line"
         id="tspan728">) </tspan></text><text
       transform="scale(1,-1)"
       style="font-variant:normal;font-weight:bold;font-size:9px;font-family:'Times New Roman';-inkscape-font-specification:'TimesNewRoman Bold';writing-mode:lr-tb;fill:#000000;fill-opacity:1;fill-rule:nonzero;stroke:none"
       id="text734"
       x="403.79999"
       y="-501"><tspan
         x="403.79999"
         y="-501"
         id="tspan732">б</tspan></text><text
       transform="scale(1,-1)"
       style="font-variant:normal;font-weight:bold;font-size:9px;font-family:'Times New Roman';-inkscape-font-specification:'TimesNewRoman Bold';writing-mode:lr-tb;fill:#000000;fill-opacity:1;fill-rule:nonzero;stroke:none"
       id="text738"
       x="408.35999"
       y="-501"><tspan
         x="408.35999"
         y="-501"
         id="tspan736">)</tspan></text><g
       id="g1696"
       clip-path="url(#clipPath1700)" /><g
       id="g1710"
       clip-path="url(#clipPath1714)" /><g
       id="g1724"
       clip-path="url(#clipPath1728)" /><g
       id="g1738"
       clip-path="url(#clipPath1742)" /><g
       id="g1752"
       clip-path="url(#clipPath1756)" /><g
       id="g1766"
       clip-path="url(#clipPath1770)" /></g></svg>
